<svg viewBox="0 0 427 70" fill="none" xmlns="http://www.w3.org/2000/svg">
<path d="M11.5296 11.7256C9.91106 12.6777 8.00688 13.1537 5.81707 13.1537C5.10301 13.1537 4.36514 13.1061 3.60347 13.0109L5.38863 6.15587C6.00749 6.25108 6.60255 6.29868 7.1738 6.29868C10.2681 6.29868 12.6245 4.68013 14.2431 1.44303H25.5967C31.2617 1.44303 36.0935 3.53763 40.0923 7.72682C41.806 10.0594 42.6629 12.6777 42.6629 15.5816C42.6629 19.2947 41.0682 22.8174 37.8787 26.1497C35.3556 28.768 32.428 30.3151 29.0957 30.7912C30.9046 33.457 31.8805 36.8369 32.0233 40.9309C32.0233 42.4067 31.8329 44.4775 31.4521 47.1433C31.0712 49.7616 30.8808 51.4991 30.8808 52.356C30.8808 53.5937 31.1188 54.4744 31.5949 54.998C32.547 56.0929 33.0468 56.6404 33.0944 56.6404C33.5705 57.1164 34.1417 57.3545 34.8082 57.3545C35.5223 57.3545 36.5458 57.0926 37.8787 56.569L39.2354 64.2095C35.6651 66.2565 32.2852 67.28 29.0957 67.28C26.763 67.28 24.8351 66.7802 23.3117 65.7805C20.5031 63.7811 19.0987 60.9724 19.0987 57.3545C19.0987 56.1168 19.3129 54.5696 19.7414 52.713C20.1698 50.8089 20.6221 48.8809 21.0981 46.9291C21.8122 43.5968 22.1692 40.7643 22.1692 38.4317C22.1692 35.0518 21.4075 32.743 19.8842 31.5052L21.5265 25.0072C27.4771 25.1501 31.1188 22.3176 32.4518 16.5098C32.547 15.9862 32.5946 15.4863 32.5946 15.0103C32.5946 12.5825 31.5711 10.8211 29.5241 9.72621C28.096 8.96454 26.5488 8.6313 24.8827 8.72651C24.3114 8.82172 23.9068 8.84552 23.6687 8.79792L11.601 54.998H0.247353L11.5296 11.7256ZM42.6981 54.641C38.2233 52.4512 35.9858 48.262 35.9858 42.0734C35.9858 38.7411 36.7713 35.4802 38.3423 32.2907C40.0084 28.8156 42.2696 26.0545 45.1259 24.0075C47.9822 21.9129 50.886 20.8657 53.8375 20.8657C55.5513 20.8657 57.146 21.2465 58.6218 22.0082C63.0966 24.1504 65.334 28.3157 65.334 34.5043C65.334 37.8366 64.5485 41.0975 62.9776 44.287C61.3114 47.7622 59.0502 50.547 56.1939 52.6416C53.3377 54.6886 50.4338 55.7121 47.4823 55.7121C45.7686 55.7121 44.1738 55.3551 42.6981 54.641ZM53.9089 28.5776C52.814 28.5776 51.6001 29.2678 50.2672 30.6484C48.9343 31.9813 47.7918 33.7903 46.8397 36.0753C45.84 38.5031 45.3401 40.8119 45.3401 43.0017C45.3401 46.1436 46.2446 47.7146 48.0536 47.7146C49.1485 47.7146 50.3624 47.0481 51.6953 45.7152C53.0282 44.3823 54.1707 42.5495 55.1228 40.2169C56.1225 37.8366 56.6224 35.5516 56.6224 33.3618C56.6224 30.1723 55.7179 28.5776 53.9089 28.5776ZM91.7087 33.8617C90.3282 30.9102 88.5668 29.244 86.4246 28.8632C86.1866 28.768 85.9486 28.7204 85.7106 28.7204C84.568 28.7204 83.2827 29.363 81.8546 30.6484C80.2836 32.0765 79.0697 33.9331 78.2128 36.2181C77.4988 38.0747 77.1417 39.9074 77.1417 41.7164C77.1417 43.0017 77.3322 44.1918 77.713 45.2867C78.2843 46.7625 79.1173 47.5003 80.2122 47.5003C83.0685 47.5479 86.139 45.9056 89.4237 42.5733L86.7817 52.8558C84.1158 54.522 81.45 55.3551 78.7841 55.3551C77.1179 55.3551 75.5708 54.998 74.1427 54.284C69.6678 52.1418 67.4304 48.0002 67.4304 41.8592C67.4304 38.5745 68.1921 35.3374 69.7155 32.1479C71.3816 28.768 73.619 26.0545 76.4277 24.0075C79.2839 21.9129 82.1878 20.8657 85.1393 20.8657C88.7572 20.8657 91.6849 22.389 93.9223 25.4357L91.7087 33.8617ZM114.33 68.6367C111.569 68.6367 109.451 67.637 107.975 65.6376C106.88 64.1619 106.285 62.4243 106.19 60.425C106.19 59.9013 106.309 58.7588 106.547 56.9974C106.832 54.9028 106.975 53.2605 106.975 52.0704C106.975 48.4048 105.809 45.8104 103.476 44.287L104.904 38.0747C110.998 36.5513 114.306 34.1473 114.83 30.8626C114.64 29.006 113.759 28.0777 112.188 28.0777C111.141 28.0777 109.832 28.53 108.261 29.4345C106.737 30.2913 105.428 31.8861 104.333 34.2187L98.8349 54.998H89.8376L103.262 4.2993H112.259L107.261 23.2221C109.832 21.6511 112.355 20.818 114.83 20.7228C117.591 20.7228 119.686 21.5797 121.114 23.2935C122.399 24.8168 122.923 26.5306 122.685 28.4348C122.399 31.3386 121.804 33.6236 120.9 35.2898C119.186 38.5269 116.211 41.0261 111.974 42.7875C114.306 44.7869 115.33 48.1192 115.044 52.7844C114.949 53.6413 114.901 54.403 114.901 55.0695C114.901 56.8308 115.211 58.0209 115.83 58.6398C116.211 59.0682 116.877 59.3301 117.829 59.4253C119.067 59.4253 120.09 58.9016 120.9 57.8543L123.256 64.6379C121.542 67.1134 118.567 68.4463 114.33 68.6367ZM163.994 0.586151C166.184 0.586151 168.754 0.990788 171.706 1.80006C174.419 2.56173 176.3 3.32341 177.347 4.08508L174.705 14.0106C171.135 11.5352 166.779 10.2737 161.638 10.2261C160.4 10.1784 159.115 10.5831 157.782 11.44C156.163 12.4397 155.187 13.7726 154.854 15.4387C154.378 17.7714 155.925 19.9374 159.495 21.9367C163.589 24.2694 166.422 26.3878 167.993 28.2919C170.325 31.053 171.349 34.4805 171.063 38.5745C170.778 43.335 168.493 47.5241 164.208 51.1421C160.781 54.046 156.401 55.4979 151.069 55.4979C148.166 55.4979 145.19 54.998 142.144 53.9984C140.763 53.6175 138.811 52.9749 136.288 52.0704L138.93 42.0734C142.929 44.2632 147.094 45.3581 151.426 45.3581C153.759 45.3581 155.735 44.8821 157.353 43.93C159.305 42.7399 160.281 41.0737 160.281 38.9315C160.281 35.8849 158.758 33.5046 155.711 31.7909L150.141 28.5776C148.856 27.8159 147.999 27.2208 147.57 26.7924C145.381 24.4122 144.286 21.9606 144.286 19.4375C144.286 18.533 144.405 17.5333 144.643 16.4384C146.261 16.2956 147.88 15.5816 149.498 14.2962C151.022 13.1537 152.212 11.8208 153.069 10.2975C151.212 12.4873 148.023 13.5822 143.5 13.5822C142.548 13.5822 141.572 13.5346 140.573 13.4394L142.358 6.58431C143.215 6.67952 144.024 6.72712 144.786 6.72712C147.547 6.72712 149.736 6.13207 151.355 4.94196C155.211 2.03809 159.424 0.586151 163.994 0.586151ZM182.739 54.998H172.885L179.74 28.5776H175.242L177.17 21.2227H181.668L185.524 6.58431H195.378L191.594 21.2227H197.806L195.807 28.5776H189.666L182.739 54.998ZM199.292 54.9266C195.436 53.2605 193.508 49.4283 193.508 43.4302C193.508 40.0979 194.222 36.7655 195.65 33.4332C197.221 29.7201 199.363 26.6972 202.077 24.3646C204.79 21.9844 207.504 20.7942 210.217 20.7942C212.883 20.7942 215.001 21.8891 216.572 24.079L217.358 21.1513H226.998L220.785 45.1439C220.69 45.4772 220.642 45.7866 220.642 46.0722C220.642 47.0243 221.19 47.5003 222.285 47.5003C222.904 47.5003 223.594 47.3575 224.356 47.0719L222.57 53.3557C220.095 55.0218 217.81 55.8549 215.715 55.8549C213.335 55.8549 211.336 54.7838 209.717 52.6416C207.242 54.5458 204.79 55.4979 202.362 55.4979C201.267 55.4979 200.244 55.3075 199.292 54.9266ZM211.217 28.4348C210.074 28.4348 208.837 29.1488 207.504 30.577C206.218 32.0051 205.147 33.8855 204.29 36.2181C203.481 38.3603 203.076 40.4311 203.076 42.4305C203.076 45.62 203.909 47.2147 205.576 47.2147C206.671 47.2147 207.884 46.453 209.217 44.9297C210.55 43.4064 211.645 41.4546 212.502 39.0744C213.359 36.9322 213.787 34.909 213.787 33.0048C213.787 29.9581 212.93 28.4348 211.217 28.4348ZM252.171 21.7225L249.958 31.0054C248.72 30.2913 247.554 29.9343 246.459 29.9343C243.936 29.9343 241.96 31.6719 240.532 35.147L235.176 54.998H225.322L234.391 21.2941H244.245L243.674 23.4363C246.006 21.9606 248.125 21.2227 250.029 21.2227C250.886 21.2227 251.6 21.3893 252.171 21.7225ZM275.004 30.7912C272.291 28.8394 269.101 27.8635 265.436 27.8635C264.626 27.8635 263.817 28.1253 263.008 28.649C262.199 29.1726 261.794 29.8153 261.794 30.577C261.794 31.3386 262.817 32.2431 264.864 33.2904C267.721 34.7185 269.625 35.8134 270.577 36.5751C272.576 38.2413 273.576 40.2407 273.576 42.5733C273.576 46.6197 272.219 49.8806 269.506 52.356C266.792 54.7838 263.389 55.9977 259.295 55.9977C257.914 55.9977 255.962 55.7121 253.439 55.1409C250.678 54.5696 248.893 53.9746 248.084 53.3557L250.083 45.4296C252.701 46.9529 255.843 47.7146 259.509 47.7146C262.651 47.7146 264.222 46.8339 264.222 45.0725C264.222 43.7396 263.27 42.5495 261.365 41.5022C259.509 40.4549 257.652 39.4314 255.796 38.4317C253.844 36.956 252.868 35.0994 252.868 32.862C252.868 29.1964 254.296 26.1259 257.152 23.6505C259.866 21.3179 263.079 20.1516 266.792 20.1516C271.029 20.1516 274.433 21.0323 277.003 22.7936L275.004 30.7912ZM297.908 8.6551C295.575 8.6551 293.433 9.60719 291.481 11.5114L289.268 5.08477C291.505 2.75215 294.718 1.51444 298.908 1.37162C303.287 1.41923 312.76 1.44303 327.327 1.44303L325.185 8.79792H314.189L302.121 54.998H291.553L303.62 8.72651L297.908 8.6551ZM320.784 43.7158C321.117 45.7628 321.808 47.0243 322.855 47.5003C323.141 47.6908 323.498 47.8812 323.926 48.0716C327.354 48.1192 330.329 46.8577 332.852 44.287L330.353 53.8555C328.353 55.1409 326.211 55.7835 323.926 55.7835C321.927 55.7835 319.927 55.2837 317.928 54.284C313.548 52.1418 311.358 48.0478 311.358 42.002C311.358 38.7649 312.12 35.5754 313.643 32.4335C315.31 29.006 317.618 26.2688 320.57 24.2218C323.521 22.1272 326.497 21.0799 329.496 21.0799C331.162 21.0799 332.709 21.4131 334.137 22.0796C337.898 23.3649 339.778 26.2212 339.778 30.6484C339.778 31.4576 339.707 32.1955 339.564 32.862C338.898 35.8611 337.089 38.5031 334.137 40.7881C331.186 43.0731 327.972 44.2156 324.497 44.2156C323.212 44.2156 321.974 44.049 320.784 43.7158ZM321.355 37.5034C322.26 37.6938 323.164 37.789 324.069 37.789C326.449 37.789 328.401 37.2178 329.924 36.0753C331.495 34.6947 332.281 33.3142 332.281 31.9337C332.281 31.172 331.995 30.4341 331.424 29.7201C330.852 29.006 330.186 28.649 329.424 28.649C327.758 28.649 326.068 29.7439 324.354 31.9337C322.926 33.7427 321.927 35.5992 321.355 37.5034ZM345.034 54.9266C341.178 53.2605 339.25 49.4283 339.25 43.4302C339.25 40.0979 339.964 36.7655 341.392 33.4332C342.963 29.7201 345.105 26.6972 347.819 24.3646C350.532 21.9844 353.246 20.7942 355.959 20.7942C358.625 20.7942 360.743 21.8891 362.314 24.079L363.1 21.1513H372.74L366.527 45.1439C366.432 45.4772 366.385 45.7866 366.385 46.0722C366.385 47.0243 366.932 47.5003 368.027 47.5003C368.646 47.5003 369.336 47.3575 370.098 47.0719L368.313 53.3557C365.837 55.0218 363.552 55.8549 361.457 55.8549C359.077 55.8549 357.078 54.7838 355.459 52.6416C352.984 54.5458 350.532 55.4979 348.104 55.4979C347.01 55.4979 345.986 55.3075 345.034 54.9266ZM356.959 28.4348C355.816 28.4348 354.579 29.1488 353.246 30.577C351.96 32.0051 350.889 33.8855 350.032 36.2181C349.223 38.3603 348.819 40.4311 348.819 42.4305C348.819 45.62 349.652 47.2147 351.318 47.2147C352.413 47.2147 353.627 46.453 354.959 44.9297C356.292 43.4064 357.387 41.4546 358.244 39.0744C359.101 36.9322 359.53 34.909 359.53 33.0048C359.53 29.9581 358.673 28.4348 356.959 28.4348ZM420.906 60.1393C422.192 60.1869 423.215 59.7585 423.977 58.854L426.119 65.2092C423.882 67.5894 420.668 68.8747 416.479 69.0652C413.718 69.0652 411.457 68.0893 409.695 66.1375C408.172 64.5189 407.387 62.8052 407.339 60.9962C407.339 61.377 407.553 59.3777 407.982 54.998L413.908 32.1479C414.004 31.9099 414.051 31.6719 414.051 31.4338C414.051 30.6246 413.67 30.0057 412.909 29.5773C412.576 29.2916 412.195 29.1488 411.766 29.1488C410.909 29.1488 409.981 29.5535 408.981 30.3627C407.506 31.5529 406.744 32.1717 406.696 32.2193C405.982 32.8858 405.411 33.6712 404.983 34.5757L399.627 54.998H389.702L395.7 32.5049C395.747 32.2669 395.771 32.0289 395.771 31.7909C395.771 30.9816 395.39 30.3627 394.629 29.9343C394.343 29.6487 393.962 29.5059 393.486 29.5059C392.677 29.5059 391.749 29.9105 390.701 30.7198C388.988 32.1003 387.964 33.0048 387.631 33.4332C386.774 34.5281 386.155 36.1467 385.774 38.2889H385.703L381.276 54.998H371.422L380.276 21.2941H390.13L389.416 23.9361C392.225 22.2224 394.938 21.3655 397.556 21.3655C398.508 21.3655 399.294 21.4845 399.913 21.7225C402.103 22.6746 403.674 24.0551 404.626 25.8641C408.386 22.627 412.123 21.0085 415.836 21.0085C416.741 21.0085 417.526 21.1275 418.193 21.3655C422.096 23.0793 424.048 25.9831 424.048 30.0771C424.048 30.8388 423.977 31.529 423.834 32.1479L417.836 54.998C417.788 57.045 418.098 58.4494 418.764 59.211C419.193 59.7347 419.907 60.0441 420.906 60.1393Z" fill="#06FF00"/>
</svg>
