<svg width="11" height="15" viewBox="0 0 11 15" fill="none" xmlns="http://www.w3.org/2000/svg">
<path d="M3.25688e-06 12.7615L3.71685e-06 2.23852C-0.000590404 1.82309 0.114953 1.41598 0.33326 1.06431C0.551566 0.712644 0.863709 0.430803 1.23356 0.25141C1.67239 0.0414105 2.16062 -0.0394726 2.64261 0.0179773C3.1246 0.0754272 3.58098 0.2689 3.95972 0.576347L10.2509 5.83782C10.486 6.0443 10.6746 6.29958 10.8039 6.58637C10.9331 6.87315 11 7.18473 11 7.5C11 7.81527 10.9331 8.12685 10.8039 8.41363C10.6746 8.70041 10.486 8.9557 10.2509 9.16218L3.95972 14.4237C3.58098 14.7311 3.1246 14.9246 2.64261 14.982C2.16062 15.0395 1.67239 14.9586 1.23356 14.7486C0.863709 14.5692 0.551565 14.2874 0.333259 13.9357C0.114952 13.584 -0.0005909 13.1769 3.25688e-06 12.7615Z" fill="#5A108E"/>
</svg>
