<svg width="15" height="11" viewBox="0 0 15 11" fill="none" xmlns="http://www.w3.org/2000/svg">
<path d="M2.23853 2.69905e-06L12.7615 3.619e-06C13.1769 -0.000590484 13.584 0.114953 13.9357 0.333259C14.2874 0.551566 14.5692 0.863709 14.7486 1.23356C14.9586 1.67239 15.0395 2.16062 14.982 2.64261C14.9246 3.1246 14.7311 3.58098 14.4237 3.95972L9.16218 10.2509C8.9557 10.486 8.70042 10.6746 8.41363 10.8039C8.12685 10.9331 7.81527 11 7.5 11C7.18473 11 6.87315 10.9331 6.58637 10.8039C6.29959 10.6746 6.0443 10.486 5.83782 10.2509L0.576347 3.95972C0.2689 3.58098 0.0754268 3.1246 0.0179775 2.64261C-0.0394728 2.16061 0.0414132 1.67238 0.251413 1.23356C0.430805 0.863708 0.712645 0.551565 1.06431 0.333258C1.41598 0.114952 1.82309 -0.000591476 2.23853 2.69905e-06Z" fill="#5A108E"/>
</svg>
