<svg width="60" height="60" viewBox="0 0 60 60" fill="none" xmlns="http://www.w3.org/2000/svg">
<path d="M55 20.405V20.5875C55 22.7375 55 23.815 54.4825 24.695C53.965 25.575 53.0225 26.0975 51.1425 27.145L49.16 28.245C50.525 23.625 50.9825 18.66 51.15 14.415L51.175 13.8625L51.18 13.7325C52.8075 14.2975 53.7225 14.72 54.2925 15.51C55 16.4925 55 17.7975 55 20.405ZM5 20.405V20.5875C5 22.7375 5 23.815 5.5175 24.695C6.035 25.575 6.9775 26.0975 8.8575 27.145L10.8425 28.245C9.475 23.625 9.0175 18.66 8.85 14.415L8.825 13.8625L8.8225 13.7325C7.1925 14.2975 6.2775 14.72 5.7075 15.51C5 16.4925 5 17.8 5 20.405Z" fill="#5A108E"/>
<path fill-rule="evenodd" clip-rule="evenodd" d="M40.9425 5.86748C37.3254 5.27466 33.6652 4.98449 30 4.99998C25.5425 4.99998 21.8675 5.39248 19.0575 5.86748C16.21 6.34748 14.7875 6.58748 13.5975 8.05248C12.41 9.51748 12.4725 11.1 12.5975 14.265C13.03 25.135 15.375 38.715 28.125 39.915V48.75H24.55C23.9722 48.7503 23.4124 48.9508 22.9658 49.3172C22.5191 49.6836 22.2132 50.1935 22.1 50.76L21.625 53.125H15C14.5027 53.125 14.0258 53.3225 13.6741 53.6741C13.3225 54.0258 13.125 54.5027 13.125 55C13.125 55.4973 13.3225 55.9742 13.6741 56.3258C14.0258 56.6774 14.5027 56.875 15 56.875H45C45.4972 56.875 45.9741 56.6774 46.3258 56.3258C46.6774 55.9742 46.875 55.4973 46.875 55C46.875 54.5027 46.6774 54.0258 46.3258 53.6741C45.9741 53.3225 45.4972 53.125 45 53.125H38.375L37.9 50.76C37.7867 50.1935 37.4808 49.6836 37.0341 49.3172C36.5875 48.9508 36.0277 48.7503 35.45 48.75H31.875V39.915C44.625 38.715 46.9725 25.1375 47.4025 14.265C47.5275 11.1 47.5925 9.51498 46.4025 8.05248C45.2125 6.58748 43.79 6.34748 40.9425 5.86748Z" fill="#5A108E"/>
</svg>
