<svg width="58" height="58" viewBox="0 0 58 58" fill="none" xmlns="http://www.w3.org/2000/svg">
<path d="M28.9998 4.22919C22.4302 4.22919 16.1296 6.83896 11.4842 11.4844C6.83878 16.1298 4.229 22.4304 4.229 29C4.229 35.5697 6.83878 41.8702 11.4842 46.5156C16.1296 51.1611 22.4302 53.7709 28.9998 53.7709C35.5695 53.7709 41.87 51.1611 46.5155 46.5156C51.1609 41.8702 53.7707 35.5697 53.7707 29C53.7707 22.4304 51.1609 16.1298 46.5155 11.4844C41.87 6.83896 35.5695 4.22919 28.9998 4.22919ZM42.7507 30.4259C42.4459 30.8268 42.0234 31.1225 41.5423 31.2717L37.6515 32.5767C36.4626 32.983 35.3805 33.6521 34.4857 34.5342C33.5968 35.4237 32.9267 36.5074 32.5282 37.7L31.199 41.5909C31.0202 42.0296 30.7283 42.4132 30.3532 42.7025C29.9519 42.9932 29.4711 43.1535 28.9757 43.1617C28.4778 43.169 27.9921 43.0071 27.5982 42.7025C27.1963 42.414 26.8926 42.0091 26.7282 41.5425L25.4473 37.6517C25.0493 36.4549 24.3763 35.3681 23.4824 34.4784C22.5884 33.5887 21.4985 32.9208 20.2998 32.5284L16.4332 31.2475C15.9666 31.0831 15.5617 30.7794 15.2732 30.3775C14.9719 29.9818 14.8104 29.4973 14.814 29C14.8173 28.4964 14.9778 28.0063 15.2732 27.5984C15.5507 27.2066 15.9501 26.9177 16.409 26.7767L20.2998 25.4717C21.5026 25.0644 22.6002 24.3959 23.514 23.5142C24.4082 22.6104 25.0776 21.5084 25.4715 20.3L26.7765 16.4817C26.9213 16.0244 27.1989 15.6206 27.574 15.3217C27.9594 14.9962 28.447 14.8166 28.9515 14.8142C29.431 14.8059 29.9021 14.9405 30.3048 15.2009C30.7301 15.4652 31.0537 15.8655 31.2232 16.3367L32.5282 20.2759C32.9342 21.4914 33.6108 22.5983 34.5098 23.5142C35.4181 24.391 36.5068 25.059 37.6998 25.4717L41.5907 26.825C42.053 26.9724 42.4529 27.2701 42.7265 27.6709C43.0086 28.0749 43.1603 28.5556 43.1615 29.0484C43.1591 29.5365 43.0165 30.015 42.7507 30.4259Z" fill="#5A108E"/>
</svg>
