<svg width="56" height="56" viewBox="0 0 56 56" fill="none" xmlns="http://www.w3.org/2000/svg">
<path fill-rule="evenodd" clip-rule="evenodd" d="M28.1212 2.91669H27.8785C25.7808 2.91669 24.0332 2.91669 22.6472 3.10335C21.1818 3.29935 19.8588 3.73335 18.7972 4.79502C17.7332 5.85902 17.2992 7.18202 17.1032 8.64502C16.9702 9.64135 16.9305 12.019 16.9212 14.0584C12.2032 14.2147 9.36817 14.7654 7.40117 16.7347C4.6665 19.467 4.6665 23.8677 4.6665 32.6667C4.6665 41.4657 4.6665 45.8664 7.40117 48.5987C10.1335 51.3334 14.5342 51.3334 23.3332 51.3334H32.6665C41.4655 51.3334 45.8662 51.3334 48.5985 48.5987C51.3332 45.8664 51.3332 41.4657 51.3332 32.6667C51.3332 23.8677 51.3332 19.467 48.5985 16.7347C46.6315 14.7654 43.7965 14.2147 39.0785 14.0607C39.0692 12.019 39.0318 9.64135 38.8965 8.64735C38.7005 7.18202 38.2665 5.85902 37.2025 4.79735C36.1408 3.73335 34.8178 3.29935 33.3525 3.10335C31.9665 2.91669 30.2165 2.91669 28.1212 2.91669ZM35.5785 14.0047C35.5668 12.0284 35.5342 9.90269 35.4292 9.11169C35.2822 8.03602 35.0325 7.57402 34.7292 7.27069C34.4258 6.96735 33.9638 6.71769 32.8858 6.57069C31.7612 6.42135 30.2492 6.41669 27.9998 6.41669C25.7505 6.41669 24.2385 6.42135 23.1115 6.57302C22.0358 6.71769 21.5738 6.96735 21.2705 7.27302C20.9672 7.57635 20.7175 8.03602 20.5705 9.11169C20.4655 9.90502 20.4305 12.0284 20.4212 14.0047C21.3335 14 22.3065 14 23.3332 14H32.6665C33.6955 14 34.6662 14 35.5785 14.0047ZM27.9998 21.5834C28.464 21.5834 28.9091 21.7677 29.2373 22.0959C29.5655 22.4241 29.7498 22.8692 29.7498 23.3334V23.3567C32.2908 23.996 34.4165 26.0004 34.4165 28.777C34.4165 29.2412 34.2321 29.6863 33.9039 30.0145C33.5758 30.3426 33.1306 30.527 32.6665 30.527C32.2024 30.527 31.7573 30.3426 31.4291 30.0145C31.1009 29.6863 30.9165 29.2412 30.9165 28.777C30.9165 27.881 29.9225 26.6397 27.9998 26.6397C26.0772 26.6397 25.0832 27.881 25.0832 28.777C25.0832 29.673 26.0772 30.9167 27.9998 30.9167C31.2315 30.9167 34.4165 33.1567 34.4165 36.5564C34.4165 39.333 32.2908 41.335 29.7498 41.9767V42C29.7498 42.4641 29.5655 42.9093 29.2373 43.2375C28.9091 43.5656 28.464 43.75 27.9998 43.75C27.5357 43.75 27.0906 43.5656 26.7624 43.2375C26.4342 42.9093 26.2498 42.4641 26.2498 42V41.9767C23.7088 41.3374 21.5832 39.333 21.5832 36.5564C21.5832 36.0922 21.7675 35.6471 22.0957 35.3189C22.4239 34.9907 22.869 34.8064 23.3332 34.8064C23.7973 34.8064 24.2424 34.9907 24.5706 35.3189C24.8988 35.6471 25.0832 36.0922 25.0832 36.5564C25.0832 37.4524 26.0772 38.6937 27.9998 38.6937C29.9225 38.6937 30.9165 37.4524 30.9165 36.5564C30.9165 35.6604 29.9225 34.4167 27.9998 34.4167C24.7682 34.4167 21.5832 32.1767 21.5832 28.777C21.5832 26.0004 23.7088 23.996 26.2498 23.3567V23.3334C26.2498 22.8692 26.4342 22.4241 26.7624 22.0959C27.0906 21.7677 27.5357 21.5834 27.9998 21.5834Z" fill="#5A108E"/>
</svg>
