<svg width="24" height="24" viewBox="0 0 24 24" fill="none" xmlns="http://www.w3.org/2000/svg">
<g clip-path="url(#clip0_2052_372)">
<path fill-rule="evenodd" clip-rule="evenodd" d="M19.7771 4.42069C20.0243 4.31668 20.2947 4.28081 20.5604 4.3168C20.8261 4.3528 21.0773 4.45936 21.2878 4.62537C21.4984 4.79139 21.6606 5.0108 21.7575 5.26077C21.8545 5.51074 21.8827 5.78213 21.8391 6.04669L19.5711 19.8037C19.3511 21.1307 17.8951 21.8917 16.6781 21.2307C15.6601 20.6777 14.1481 19.8257 12.7881 18.9367C12.1081 18.4917 10.0251 17.0667 10.2811 16.0527C10.5011 15.1857 14.0011 11.9277 16.0011 9.99069C16.7861 9.22969 16.4281 8.79069 15.5011 9.49069C13.1991 11.2287 9.50314 13.8717 8.28114 14.6157C7.20314 15.2717 6.64114 15.3837 5.96914 15.2717C4.74314 15.0677 3.60614 14.7517 2.67814 14.3667C1.42414 13.8467 1.48514 12.1227 2.67714 11.6207L19.7771 4.42069Z" fill="white"/>
</g>
<defs>
<clipPath id="clip0_2052_372">
<rect width="24" height="24" fill="white" transform="translate(0 -0.00927734)"/>
</clipPath>
</defs>
</svg>
