<svg width="24" height="24" viewBox="0 0 24 24" fill="none" xmlns="http://www.w3.org/2000/svg">
<path d="M17.25 2.74072H6.75C5.49022 2.74072 4.28204 3.24117 3.39124 4.13197C2.50044 5.02276 2 6.23094 2 7.49072V16.4907C2 17.1145 2.12286 17.7322 2.36157 18.3085C2.60028 18.8848 2.95016 19.4084 3.39124 19.8495C4.28204 20.7403 5.49022 21.2407 6.75 21.2407H17.25C18.509 21.2381 19.7156 20.7368 20.6058 19.8466C21.4961 18.9563 21.9974 17.7497 22 16.4907V7.49072C21.9974 6.23176 21.4961 5.02511 20.6058 4.13488C19.7156 3.24466 18.509 2.74336 17.25 2.74072ZM13.6 11.0607C13.108 11.3413 12.5514 11.4889 11.985 11.4889C11.4186 11.4889 10.862 11.3413 10.37 11.0607L3.52 7.13072C3.60857 6.33602 3.98701 5.60187 4.58292 5.06869C5.17883 4.53551 5.95038 4.24072 6.75 4.24072H17.25C18.049 4.24291 18.8194 4.53845 19.4148 5.07122C20.0103 5.60399 20.3893 6.33689 20.48 7.13072L13.6 11.0607Z" fill="white"/>
</svg>
