<svg width="26" height="26" viewBox="0 0 26 26" fill="none" xmlns="http://www.w3.org/2000/svg">
<path d="M19.5 6.49072C21.7425 8.70072 22.5875 11.7882 22.0567 14.6699C22.5008 15.4499 22.75 16.3599 22.75 17.3241C22.75 18.7606 22.1793 20.1384 21.1635 21.1542C20.1477 22.17 18.7699 22.7407 17.3333 22.7407C16.3692 22.7407 15.4592 22.4916 14.6792 22.0474C11.7975 22.5782 8.71 21.7332 6.5 19.4907C4.2575 17.2807 3.4125 14.1932 3.94333 11.3116C3.49917 10.5316 3.25 9.62156 3.25 8.65739C3.25 7.2208 3.82068 5.84305 4.8365 4.82723C5.85233 3.81141 7.23008 3.24072 8.66667 3.24072C9.63083 3.24072 10.5408 3.48989 11.3208 3.93406C14.2025 3.40322 17.29 4.24822 19.5 6.49072ZM13.0433 18.5807C16.1525 18.5807 17.7017 17.0857 17.7017 15.0707C17.7017 13.7816 17.095 12.4057 14.7442 11.8749L12.5883 11.3982C11.765 11.2141 10.8333 10.9649 10.8333 10.1957C10.8333 9.41572 11.4833 8.87406 12.675 8.87406C15.0908 8.87406 14.8633 10.5316 16.0658 10.5316C16.6942 10.5316 17.2358 10.1632 17.2358 9.52406C17.2358 8.03989 14.8633 6.92406 12.8483 6.92406C10.6708 6.92406 8.34167 7.85572 8.34167 10.3257C8.34167 11.5174 8.76417 12.7849 11.1042 13.3699L14.0183 14.1066C14.8958 14.3232 15.1125 14.8107 15.1125 15.2657C15.1125 16.0024 14.3758 16.7282 13.0433 16.7282C10.4325 16.7282 10.79 14.7241 9.3925 14.7241C8.76417 14.7241 8.30917 15.1574 8.30917 15.7749C8.30917 16.9774 9.75 18.5807 13.0433 18.5807Z" fill="white"/>
</svg>
