<svg viewBox="0 0 60 60" fill="none" xmlns="http://www.w3.org/2000/svg">
<g filter="url(#filter0_b_2052_85)">
<rect width="60" height="60" rx="30" fill="#5A108E"/>
</g>
<rect x="15" y="15" width="30" height="30" rx="6" fill="#5A108E"/>
<path d="M19.6289 40.1172H24.1406V26.5625H19.6289V40.1172ZM24.4336 22.3828C24.4206 21.7057 24.1862 21.1458 23.7305 20.7031C23.2747 20.2604 22.6693 20.0391 21.9141 20.0391C21.1589 20.0391 20.5436 20.2604 20.0684 20.7031C19.5931 21.1458 19.3555 21.7057 19.3555 22.3828C19.3555 23.0469 19.5866 23.6035 20.0488 24.0527C20.5111 24.502 21.1133 24.7266 21.8555 24.7266H21.875C22.6432 24.7266 23.2617 24.502 23.7305 24.0527C24.1992 23.6035 24.4336 23.0469 24.4336 22.3828ZM35.8594 40.1172H40.3711V32.3438C40.3711 30.3385 39.8958 28.8216 38.9453 27.793C37.9948 26.7643 36.7383 26.25 35.1758 26.25C33.4049 26.25 32.0443 27.0117 31.0938 28.5352H31.1328V26.5625H26.6211C26.6602 27.4219 26.6602 31.9401 26.6211 40.1172H31.1328V32.5391C31.1328 32.0443 31.1784 31.6797 31.2695 31.4453C31.4648 30.9896 31.7578 30.6022 32.1484 30.2832C32.5391 29.9642 33.0208 29.8047 33.5938 29.8047C35.1042 29.8047 35.8594 30.8268 35.8594 32.8711V40.1172ZM45 20.625V39.375C45 40.9245 44.4499 42.2493 43.3496 43.3496C42.2493 44.4499 40.9245 45 39.375 45H20.625C19.0755 45 17.7507 44.4499 16.6504 43.3496C15.5501 42.2493 15 40.9245 15 39.375V20.625C15 19.0755 15.5501 17.7507 16.6504 16.6504C17.7507 15.5501 19.0755 15 20.625 15H39.375C40.9245 15 42.2493 15.5501 43.3496 16.6504C44.4499 17.7507 45 19.0755 45 20.625Z" fill="#51FD35"/>
<defs>
<filter id="filter0_b_2052_85" x="-15.7219" y="-15.7219" width="91.4438" height="91.4438" filterUnits="userSpaceOnUse" color-interpolation-filters="sRGB">
<feFlood flood-opacity="0" result="BackgroundImageFix"/>
<feGaussianBlur in="BackgroundImageFix" stdDeviation="7.86095"/>
<feComposite in2="SourceAlpha" operator="in" result="effect1_backgroundBlur_2052_85"/>
<feBlend mode="normal" in="SourceGraphic" in2="effect1_backgroundBlur_2052_85" result="shape"/>
</filter>
</defs>
</svg>
