<svg viewBox="0 0 60 60" fill="none" xmlns="http://www.w3.org/2000/svg">
<g filter="url(#filter0_b_2052_80)">
<rect width="60" height="60" rx="30" fill="#5A108E"/>
</g>
<rect x="16" y="16" width="28" height="28" rx="14" fill="#5A108E"/>
<path d="M29.875 24.9237C27.1337 24.9237 24.9237 27.155 24.9237 29.875C24.9237 32.595 27.155 34.8263 29.875 34.8263C32.595 34.8263 34.8263 32.595 34.8263 29.875C34.8263 27.155 32.595 24.9237 29.875 24.9237ZM44.75 29.875C44.75 27.8138 44.75 25.795 44.6437 23.7338C44.5375 21.3538 43.985 19.2288 42.2425 17.5075C40.5 15.765 38.3963 15.2125 36.0163 15.1062C33.955 15 31.9363 15 29.875 15C27.8138 15 25.795 15 23.7338 15.1062C21.3538 15.2125 19.2288 15.765 17.5075 17.5075C15.765 19.25 15.2125 21.3538 15.1062 23.7338C15 25.795 15 27.8138 15 29.875C15 31.9363 15 33.955 15.1062 36.0163C15.2125 38.3963 15.765 40.5212 17.5075 42.2425C19.25 43.985 21.3538 44.5375 23.7338 44.6437C25.795 44.75 27.8138 44.75 29.875 44.75C31.9363 44.75 33.955 44.75 36.0163 44.6437C38.3963 44.5375 40.5212 43.985 42.2425 42.2425C43.985 40.5 44.5375 38.3963 44.6437 36.0163C44.7712 33.9763 44.75 31.9363 44.75 29.875ZM29.875 37.5037C25.6462 37.5037 22.2462 34.1038 22.2462 29.875C22.2462 25.6462 25.6462 22.2462 29.875 22.2462C34.1038 22.2462 37.5037 25.6462 37.5037 29.875C37.5037 34.1038 34.1038 37.5037 29.875 37.5037ZM37.8225 23.7125C36.845 23.7125 36.0375 22.9263 36.0375 21.9275C36.0375 20.9288 36.8237 20.1425 37.8225 20.1425C38.8212 20.1425 39.6075 20.9288 39.6075 21.9275C39.6129 22.1603 39.5704 22.3917 39.4827 22.6073C39.3949 22.823 39.2638 23.0183 39.0975 23.1812C38.9346 23.3476 38.7392 23.4787 38.5236 23.5664C38.3079 23.6541 38.0765 23.6966 37.8438 23.6912L37.8225 23.7125Z" fill="#3AF51C"/>
<defs>
<filter id="filter0_b_2052_80" x="-15.7219" y="-15.7219" width="91.4438" height="91.4438" filterUnits="userSpaceOnUse" color-interpolation-filters="sRGB">
<feFlood flood-opacity="0" result="BackgroundImageFix"/>
<feGaussianBlur in="BackgroundImageFix" stdDeviation="7.86095"/>
<feComposite in2="SourceAlpha" operator="in" result="effect1_backgroundBlur_2052_80"/>
<feBlend mode="normal" in="SourceGraphic" in2="effect1_backgroundBlur_2052_80" result="shape"/>
</filter>
</defs>
</svg>
