<svg viewBox="0 0 838 432" fill="none" xmlns="http://www.w3.org/2000/svg">
<path d="M187.806 76.6683C182.781 79.6239 176.87 81.1017 170.072 81.1017C167.856 81.1017 165.565 80.9539 163.201 80.6583L168.742 59.3781C170.663 59.6736 172.511 59.8214 174.284 59.8214C183.89 59.8214 191.205 54.7969 196.229 44.7479H231.475C249.061 44.7479 264.06 51.2502 276.474 64.2548C281.794 71.496 284.454 79.6239 284.454 88.6384C284.454 100.165 279.503 111.101 269.602 121.446C261.77 129.573 252.681 134.376 242.337 135.854C247.952 144.13 250.982 154.622 251.425 167.331C251.425 171.912 250.834 178.341 249.652 186.616C248.469 194.744 247.878 200.138 247.878 202.798C247.878 206.64 248.617 209.374 250.095 211C253.051 214.399 254.602 216.098 254.75 216.098C256.228 217.576 258.001 218.315 260.07 218.315C262.287 218.315 265.464 217.502 269.602 215.877L273.814 239.595C262.73 245.95 252.238 249.127 242.337 249.127C235.095 249.127 229.11 247.575 224.381 244.472C215.662 238.265 211.303 229.546 211.303 218.315C211.303 214.473 211.968 209.67 213.298 203.907C214.628 197.995 216.032 192.01 217.51 185.951C219.726 175.607 220.835 166.814 220.835 159.573C220.835 149.08 218.47 141.913 213.741 138.071L218.84 117.899C237.312 118.342 248.617 109.549 252.755 91.5201C253.051 89.8946 253.198 88.3429 253.198 86.8651C253.198 79.3283 250.021 73.8605 243.667 70.4615C239.233 68.0971 234.43 67.0626 229.258 67.3582C227.485 67.6537 226.229 67.7276 225.49 67.5798L188.028 211H152.782L187.806 76.6683ZM284.563 209.892C270.672 203.094 263.726 190.089 263.726 170.878C263.726 160.533 266.164 150.41 271.041 140.509C276.213 129.721 283.233 121.15 292.1 114.795C300.966 108.293 309.981 105.042 319.143 105.042C324.463 105.042 329.414 106.224 333.995 108.589C347.886 115.239 354.832 128.169 354.832 147.381C354.832 157.725 352.394 167.848 347.517 177.75C342.345 188.537 335.325 197.183 326.458 203.685C317.592 210.039 308.577 213.217 299.415 213.217C294.095 213.217 289.144 212.108 284.563 209.892ZM319.365 128.982C315.966 128.982 312.198 131.125 308.06 135.411C303.922 139.549 300.375 145.164 297.42 152.258C294.316 159.794 292.765 166.962 292.765 173.76C292.765 183.513 295.572 188.39 301.188 188.39C304.587 188.39 308.355 186.321 312.493 182.183C316.631 178.045 320.178 172.356 323.133 165.114C326.237 157.725 327.788 150.632 327.788 143.834C327.788 133.933 324.981 128.982 319.365 128.982ZM436.708 145.386C432.422 136.223 426.954 131.051 420.304 129.869C419.565 129.573 418.827 129.426 418.088 129.426C414.541 129.426 410.551 131.421 406.117 135.411C401.241 139.844 397.472 145.607 394.812 152.701C392.596 158.464 391.487 164.154 391.487 169.769C391.487 173.76 392.078 177.454 393.261 180.853C395.034 185.434 397.62 187.725 401.019 187.725C409.886 187.872 419.418 182.774 429.614 172.43L421.413 204.35C413.137 209.522 404.861 212.108 396.586 212.108C391.413 212.108 386.611 211 382.177 208.783C368.286 202.133 361.34 189.276 361.34 170.213C361.34 160.016 363.705 149.967 368.434 140.066C373.606 129.573 380.552 121.15 389.271 114.795C398.137 108.293 407.152 105.042 416.314 105.042C427.546 105.042 436.634 109.771 443.58 119.229L436.708 145.386ZM506.932 253.339C498.361 253.339 491.785 250.236 487.203 244.029C483.805 239.448 481.957 234.054 481.662 227.847C481.662 226.221 482.031 222.675 482.77 217.207C483.657 210.704 484.1 205.606 484.1 201.912C484.1 190.533 480.479 182.479 473.238 177.75L477.672 158.464C496.587 153.735 506.858 146.272 508.484 136.076C507.893 130.312 505.159 127.431 500.282 127.431C497.031 127.431 492.967 128.835 488.09 131.642C483.361 134.302 479.297 139.253 475.898 146.494L458.83 211H430.899L472.573 53.6146H500.504L484.987 112.357C492.967 107.48 500.799 104.894 508.484 104.599C517.055 104.599 523.557 107.259 527.991 112.579C531.981 117.308 533.606 122.628 532.867 128.539C531.981 137.553 530.133 144.647 527.326 149.819C522.006 159.868 512.769 167.627 499.617 173.095C506.858 179.301 510.035 189.646 509.149 204.128C508.853 206.788 508.705 209.153 508.705 211.222C508.705 216.69 509.666 220.384 511.587 222.305C512.769 223.635 514.838 224.448 517.794 224.744C521.636 224.744 524.813 223.118 527.326 219.867L534.641 240.925C529.321 248.61 520.084 252.748 506.932 253.339Z" fill="#5A108E"/>
<path d="M361.467 217.821C368.265 217.821 376.245 219.077 385.408 221.59C393.831 223.954 399.669 226.319 402.92 228.683L394.718 259.495C383.634 251.811 370.113 247.894 354.152 247.747C350.31 247.599 346.32 248.855 342.182 251.515C337.158 254.618 334.128 258.756 333.094 263.928C331.616 271.17 336.419 277.894 347.502 284.1C360.211 291.342 369.004 297.918 373.881 303.829C381.122 312.4 384.299 323.04 383.413 335.749C382.526 350.527 375.433 363.532 362.132 374.763C351.492 383.778 337.897 388.285 321.345 388.285C312.331 388.285 303.094 386.733 293.637 383.63C289.351 382.448 283.292 380.453 275.46 377.645L283.661 346.611C296.075 353.409 309.006 356.808 322.454 356.808C329.695 356.808 335.828 355.33 340.852 352.375C346.911 348.68 349.941 343.508 349.941 336.858C349.941 327.4 345.212 320.011 335.754 314.691L318.464 304.716C314.474 302.351 311.813 300.504 310.483 299.174C303.686 291.785 300.287 284.174 300.287 276.342C300.287 273.534 300.656 270.431 301.395 267.032C306.42 266.589 311.444 264.372 316.469 260.382C321.197 256.835 324.892 252.697 327.552 247.968C321.789 254.766 311.887 258.165 297.848 258.165C294.893 258.165 291.863 258.017 288.76 257.722L294.302 236.441C296.962 236.737 299.474 236.885 301.838 236.885C310.41 236.885 317.207 235.038 322.232 231.343C334.202 222.329 347.281 217.821 361.467 217.821ZM419.659 386.733H389.069L410.349 304.716H396.384L402.369 281.884H416.334L428.304 236.441H458.895L447.146 281.884H466.431L460.225 304.716H441.161L419.659 386.733ZM471.043 386.512C459.073 381.339 453.088 369.443 453.088 350.823C453.088 340.478 455.305 330.134 459.738 319.789C464.615 308.262 471.265 298.878 479.688 291.637C488.112 284.248 496.535 280.554 504.959 280.554C513.234 280.554 519.81 283.953 524.687 290.75L527.126 281.662H557.051L537.766 356.143C537.47 357.177 537.322 358.138 537.322 359.025C537.322 361.98 539.022 363.458 542.421 363.458C544.342 363.458 546.485 363.015 548.849 362.128L543.307 381.635C535.623 386.807 528.529 389.393 522.027 389.393C514.638 389.393 508.431 386.068 503.407 379.418C495.722 385.329 488.112 388.285 480.575 388.285C477.176 388.285 473.999 387.694 471.043 386.512ZM508.062 304.272C504.515 304.272 500.673 306.489 496.535 310.922C492.545 315.356 489.22 321.193 486.56 328.434C484.048 335.084 482.792 341.513 482.792 347.72C482.792 357.621 485.378 362.571 490.55 362.571C493.949 362.571 497.717 360.207 501.855 355.478C505.993 350.749 509.392 344.69 512.052 337.301C514.712 330.651 516.042 324.37 516.042 318.459C516.042 309.001 513.382 304.272 508.062 304.272ZM635.198 283.435L628.326 312.252C624.484 310.036 620.864 308.927 617.465 308.927C609.632 308.927 603.499 314.321 599.066 325.109L582.441 386.733H551.85L580.002 282.105H610.593L608.819 288.755C616.061 284.174 622.637 281.884 628.548 281.884C631.208 281.884 633.425 282.401 635.198 283.435ZM706.079 311.587C697.655 305.528 687.754 302.499 676.375 302.499C673.863 302.499 671.35 303.312 668.838 304.937C666.326 306.563 665.07 308.558 665.07 310.922C665.07 313.287 668.247 316.095 674.602 319.346C683.468 323.779 689.38 327.178 692.335 329.543C698.542 334.715 701.645 340.922 701.645 348.163C701.645 360.724 697.434 370.847 689.01 378.532C680.587 386.068 670.02 389.837 657.311 389.837C653.026 389.837 646.967 388.95 639.135 387.177C630.563 385.403 625.022 383.556 622.509 381.635L628.716 357.03C636.844 361.759 646.597 364.123 657.976 364.123C667.73 364.123 672.607 361.389 672.607 355.921C672.607 351.784 669.651 348.089 663.74 344.838C657.976 341.587 652.213 338.409 646.45 335.306C640.391 330.725 637.361 324.961 637.361 318.016C637.361 306.637 641.795 297.105 650.661 289.42C659.085 282.179 669.06 278.559 680.587 278.559C693.739 278.559 704.305 281.293 712.285 286.76L706.079 311.587Z" fill="#272727"/>
</svg>
