<svg viewBox="0 0 352 193" fill="none" xmlns="http://www.w3.org/2000/svg">
<path d="M342.075 1.1171C333.117 5.75201 310.787 19.3089 291.68 24.5897C282.389 27.1521 274.893 27.6418 268.306 28.2168C261.393 28.8272 255.481 29.5157 249.589 32.7665C232.029 42.448 219.274 73.1391 210.927 74.0264C205.426 74.6084 203.829 71.606 202.644 68.2984L202.488 67.8725C202.126 66.822 201.778 65.7432 201.352 64.7921C199.107 59.4578 197.145 54.0085 195.475 48.467C194.489 45.351 193.538 42.235 192.494 39.1262C191.38 35.7902 185.9 37.6427 186.653 40.9929C188.782 50.5537 192.948 69.8812 179.867 73.7638H179.824H179.782C166.587 77.3127 160.05 58.6169 156.898 49.34C155.791 46.0821 150.148 47.3668 150.936 50.7596C151.646 53.9536 152.476 57.1051 153.264 60.2778C154.734 65.8899 155.905 71.5762 156.771 77.3127C156.913 78.3561 157.168 79.442 157.402 80.4996C157.402 80.6771 157.473 80.8545 157.509 81.032C157.509 81.032 157.509 81.032 157.509 81.0746C158.219 84.4886 158.368 87.853 153.406 90.2024C145.819 93.7939 118.925 74.2606 98.9017 75.162C85.7777 75.7441 77.7074 84.6803 58.7277 90.1385C39.748 95.5968 13.5214 95.6962 3.46375 96.4059C0.269712 96.6331 -1.32021 101.602 4.08836 102.34C12.6626 103.518 39.2441 108.728 30.4002 128.978C29.4135 131.235 31.8907 134.834 34.3466 133.137C53.3334 120.12 75.8478 127.296 69.9211 144.224C68.828 147.362 72.093 149.583 75.1522 147.44C90.4268 136.793 112.466 138.212 125.923 145.644C133.426 149.803 138.274 155.815 137.755 162.629C137.436 166.888 141.162 166.625 142.667 164.808C161.001 142.613 183.125 155.112 191.33 161.891C193.289 163.564 195.037 165.471 196.533 167.569C196.533 167.569 196.533 167.612 196.568 167.633C196.603 167.67 196.634 167.711 196.661 167.754C197.015 168.227 197.363 168.724 197.704 169.244C197.832 169.436 197.967 169.628 198.094 169.826L198.733 170.813L199.173 171.523C199.372 171.842 199.557 172.161 199.748 172.474C199.94 172.786 200.195 173.226 200.408 173.602C200.621 173.979 200.792 174.27 200.976 174.603C201.161 174.937 201.317 175.214 201.48 175.526L201.863 176.236L202.374 177.201L202.658 177.747C203.027 178.457 203.368 179.167 203.744 179.877C203.773 179.945 203.806 180.012 203.844 180.076C204.049 180.48 204.248 180.885 204.447 181.289C204.447 181.346 204.511 181.41 204.539 181.481C205.249 182.901 205.874 184.199 206.47 185.427L206.52 185.527C206.718 185.938 206.917 186.336 207.109 186.719L207.272 187.046C207.485 187.479 207.698 187.897 207.904 188.288C209.039 190.467 210.984 190.935 212.617 190.304C214.334 189.998 215.754 188.579 215.583 186.123C215.583 185.697 215.512 185.243 215.477 184.781L215.434 184.285C215.399 183.937 215.371 183.575 215.335 183.206C215.335 183.071 215.335 182.929 215.3 182.794C215.179 181.524 215.044 180.154 214.916 178.72L214.874 178.301C214.838 177.875 214.796 177.456 214.76 177.024C214.689 176.122 214.611 175.199 214.554 174.262C214.554 174.149 214.554 174.035 214.554 173.915C214.554 173.482 214.498 173.049 214.476 172.609V172.19C214.405 170.77 214.363 169.351 214.356 167.974C214.356 167.839 214.356 167.697 214.356 167.562C214.356 167.129 214.356 166.703 214.356 166.27C214.356 166.107 214.356 165.951 214.356 165.788C214.356 164.844 214.419 163.892 214.49 162.948C214.49 162.828 214.49 162.7 214.49 162.572C214.666 159.982 215.162 157.424 215.967 154.956C219.452 144.891 231.788 122.711 259.001 132.073C261.237 132.846 264.573 131.143 262.06 127.658C250.867 112.199 278.542 80.2583 307.529 82.047C311.256 82.2741 312.888 78.6755 310.312 76.5745C296.435 65.2179 311.894 47.3526 334.884 48.5592C337.866 48.7225 338.107 44.3644 336.084 42.9519C317.984 30.3035 337.936 11.9768 344.637 6.50438C348.874 3.05482 344.921 -0.359255 342.075 1.1171Z" fill="#965FE3"/>
<path d="M346.653 3.38141C337.703 8.01632 315.373 21.5803 296.258 26.8541C286.967 29.4164 279.472 29.9132 272.885 30.4882C265.965 31.0915 260.052 31.78 254.161 35.0308C236.608 44.7123 223.853 75.4035 215.506 76.2907C208.025 77.0927 207.762 71.2441 205.917 67.0635C203.667 61.7309 201.705 56.2814 200.04 50.7384C199.053 47.6224 198.095 44.5064 197.058 41.3976C195.944 38.0616 190.465 39.9141 191.21 43.2714C193.339 52.8251 197.513 72.1597 184.424 76.0423H184.353C184.339 76.0462 184.325 76.0462 184.311 76.0423C171.123 79.5912 164.586 60.8954 161.427 51.6256C160.327 48.3677 154.684 49.6453 155.472 53.0452C156.182 56.2321 157.012 59.3907 157.793 62.5634C159.281 68.1739 160.466 73.8604 161.342 79.5983C161.959 84.1551 164.792 89.2869 157.992 92.5022C150.383 96.0795 123.489 76.5462 103.438 77.4193C90.3136 78.0084 82.2434 86.9446 63.2637 92.3958C44.284 97.8469 18.0858 98.0031 8.02808 98.7129C4.83404 98.9329 3.23702 103.908 8.65269 104.647C17.2269 105.818 43.8013 111.035 34.9645 131.278C33.9708 133.542 36.455 137.134 38.9109 135.444C57.8977 122.42 80.405 129.596 74.4854 146.524C73.3923 149.661 76.6573 151.883 79.7165 149.747C94.9911 139.064 117.03 140.519 130.48 147.951C137.99 152.103 142.831 158.115 142.313 164.936C141.993 169.195 145.72 168.932 147.224 167.108C165.565 144.92 187.682 157.412 195.887 164.191C203.454 170.415 208.954 183.83 212.468 190.573C213.604 192.752 215.548 193.221 217.181 192.589C218.899 192.277 220.318 190.857 220.141 188.409C219.623 180.821 217.302 166.512 220.524 157.249C224.009 147.177 236.345 124.996 263.565 134.365C265.801 135.132 269.137 133.429 266.625 129.943C255.453 114.456 283.127 82.5439 312.115 84.3397C315.841 84.5668 317.467 80.9682 314.897 78.8601C301.014 67.5035 316.48 49.6453 339.463 50.8519C342.451 51.0152 342.692 46.6571 340.67 45.2375C322.57 32.5962 342.515 14.2695 349.187 8.78998C353.453 5.31913 349.506 1.90505 346.653 3.38141Z" fill="url(#paint0_linear_2052_557)"/>
<path d="M207.194 70.5559L207.045 70.1229C206.406 68.3555 206.03 67.3618 205.938 67.1276C205.938 67.1276 205.938 67.0637 205.902 67.0353C203.652 61.7028 201.691 56.2532 200.025 50.7103C199.039 47.5943 198.08 44.4783 197.044 41.3695C195.93 38.0335 190.45 39.886 191.195 43.2433C193.325 52.797 197.498 72.1316 184.41 76.0141H184.353C184.339 76.0181 184.324 76.0181 184.311 76.0141C171.123 79.5631 164.586 60.8673 161.427 51.5975C160.327 48.3396 154.684 49.6172 155.472 53.0171C156.182 56.204 157.012 59.3626 157.793 62.5353C159.281 68.1458 160.465 73.8323 161.342 79.5702C161.342 79.5702 161.541 80.6774 161.974 82.7784C162.009 82.9488 162.052 83.1262 162.08 83.3037C163.358 89.422 166.403 103.007 172.131 123.371C178.618 146.418 194.539 160.344 201.154 169.912C201.203 169.969 201.246 170.032 201.289 170.089C206.144 176.79 209.87 185.52 212.489 190.545C213.625 192.724 215.569 193.193 217.202 192.561C218.92 192.249 220.339 190.829 220.162 188.38C219.779 182.752 218.416 173.432 219.047 165.206C219.047 165.071 219.047 164.943 219.047 164.808C219.757 153.189 226.01 133.031 219.53 110.02C213.795 89.6066 209.295 76.4116 207.194 70.5559Z" fill="url(#paint1_linear_2052_557)"/>
<path d="M182.848 93.6026C183.165 94.7311 183.141 95.9281 182.777 97.0425C182.414 98.1569 181.728 99.1385 180.807 99.8632C179.886 100.588 178.771 101.023 177.602 101.114C176.434 101.205 175.264 100.947 174.242 100.374C173.22 99.8003 172.391 98.9365 171.86 97.8917C171.328 96.8469 171.119 95.6681 171.257 94.5042C171.396 93.3403 171.877 92.2437 172.639 91.353C173.4 90.4623 174.409 89.8175 175.538 89.5001C177.051 89.0763 178.671 89.2702 180.042 90.0394C181.412 90.8085 182.422 92.09 182.848 93.6026Z" fill="url(#paint2_linear_2052_557)"/>
<path d="M206.257 87.0155C206.573 88.1437 206.548 89.3404 206.185 90.4543C205.822 91.5683 205.136 92.5495 204.215 93.2741C203.295 93.9987 202.18 94.434 201.011 94.5251C199.843 94.6163 198.674 94.3591 197.652 93.7861C196.63 93.2131 195.801 92.35 195.269 91.3059C194.737 90.2618 194.527 89.0835 194.665 87.9198C194.803 86.7562 195.282 85.6596 196.043 84.7684C196.804 83.8772 197.811 83.2315 198.939 82.9129C199.689 82.7001 200.473 82.6374 201.248 82.7286C202.022 82.8197 202.77 83.0629 203.45 83.4441C204.13 83.8253 204.728 84.337 205.21 84.9499C205.691 85.5628 206.047 86.2647 206.257 87.0155Z" fill="url(#paint3_linear_2052_557)"/>
<defs>
<linearGradient id="paint0_linear_2052_557" x1="63.4839" y1="-3.17661" x2="297.605" y2="128.098" gradientUnits="userSpaceOnUse">
<stop stop-color="#331A58"/>
<stop offset="1" stop-color="#200E3D"/>
</linearGradient>
<linearGradient id="paint1_linear_2052_557" x1="218.377" y1="119.672" x2="170.72" y2="107.146" gradientUnits="userSpaceOnUse">
<stop stop-color="#251144"/>
<stop offset="1" stop-color="#3F2367"/>
</linearGradient>
<linearGradient id="paint2_linear_2052_557" x1="171.954" y1="92.3016" x2="182.303" y2="98.1044" gradientUnits="userSpaceOnUse">
<stop stop-color="#FFC15C"/>
<stop offset="1" stop-color="#FA921F"/>
</linearGradient>
<linearGradient id="paint3_linear_2052_557" x1="195.362" y1="85.7128" x2="205.711" y2="91.5157" gradientUnits="userSpaceOnUse">
<stop stop-color="#FFC15C"/>
<stop offset="1" stop-color="#FA921F"/>
</linearGradient>
</defs>
</svg>
